# xmcd CD database file
#
# Track frame offsets:
#	150
#	10016
#	22912
#	39279
#	55107
#	71441
#	84741
#	103563
#	115806
#	130690
#	144485
#	160778
#	175556
#
# Disc length: 2526 seconds
#
# Revision: 0
# Processed by: cddbd v1.5.1PL2 Copyright (c) Steve Scherf et al.
# Submitted via: CDex 1.51
#
DISCID=9309dc0d
DTITLE=Walter lupi - shorts
DYEAR=1900
DGENRE=Jazz
TTITLE0=Poem
TTITLE1=Island
TTITLE2=Sunshine
TTITLE3=Munay
TTITLE4=Amma
TTITLE5=Broken hands
TTITLE6=Kiss
TTITLE7=Jazzy
TTITLE8=Sunset ride
TTITLE9=Poem II
TTITLE10=Passage
TTITLE11=A whiter shade of pale
TTITLE12=Towers (camilla's song)
EXTD=
EXTT0=
EXTT1=
EXTT2=
EXTT3=
EXTT4=
EXTT5=
EXTT6=
EXTT7=
EXTT8=
EXTT9=
EXTT10=
EXTT11=
EXTT12=
PLAYORDER=
